# xmcd
#
# Track frame offsets: 
#        150
#        23123
#        45155
#        69003
#        91446
#        111672
#        133898
#        152444
#        169648
#        201912
#        225968
#
# Disc length: 3484 seconds
#
# Revision: 2
# Processed by: cddbd v1.5.2PL0 Copyright (c) Steve Scherf et al.
# Submitted via: ExactAudioCopy v0.99pb5
#
DISCID=820d9a0b
DTITLE=Kirpi (Bulent Altinbas) - The Song
DYEAR=2007
DGENRE=Ambient
TTITLE0=The Song - Bu Sarki
TTITLE1=Spell - Büyü
TTITLE2=My Name Is Kirpi - Benim Adim Kirpi
TTITLE3=Teardrop - Gözyasi
TTITLE4=Wind's Melody - Rüzgarin Melodisi
TTITLE5=Never Ending Longing - Bitmeyen Özlem
TTITLE6=The Song of Angels - Meleklerin Sarkisi
TTITLE7=Clarinet and Piano - Klarnet and Piyano
TTITLE8=First Night of Longing - Hasretin Ilk Gecesi
TTITLE9=One Last Time - Son Defa
TTITLE10=Hicaz Improvisations - Hicaz Dogaçlama
EXTD=The Songs-Kirpi\n
EXTT0=
EXTT1=
EXTT2=
EXTT3=
EXTT4=
EXTT5=
EXTT6=
EXTT7=
EXTT8=
EXTT9=
EXTT10=
PLAYORDER=
